{
    "asset" : {
        "generator" : "Khronos glTF Blender I/O v3.3.27",
        "version" : "2.0"
    },
    "scene" : 0,
    "scenes" : [
        {
            "name" : "Scene",
            "nodes" : [
                0
            ]
        }
    ],
    "nodes" : [
        {
            "mesh" : 0,
            "name" : "flower_beige2"
        }
    ],
    "materials" : [
        {
            "name" : "natureKit-leavesGreen",
            "pbrMetallicRoughness" : {
                "baseColorFactor" : [
                    0.3529411852359772,
                    0.7686274647712708,
                    0.7137255072593689,
                    1
                ],
                "metallicFactor" : 0.25
            }
        },
        {
            "name" : "natureKit-woodLight",
            "pbrMetallicRoughness" : {
                "baseColorFactor" : [
                    0.9960784316062927,
                    0.7803921699523926,
                    0.6392157077789307,
                    1
                ],
                "metallicFactor" : 0.25
            }
        }
    ],
    "meshes" : [
        {
            "name" : "flower_beige2",
            "primitives" : [
                {
                    "attributes" : {
                        "POSITION" : 0,
                        "NORMAL" : 1,
                        "TEXCOORD_0" : 2
                    },
                    "indices" : 3,
                    "material" : 0
                },
                {
                    "attributes" : {
                        "POSITION" : 4,
                        "NORMAL" : 5,
                        "TEXCOORD_0" : 6
                    },
                    "indices" : 7,
                    "material" : 1
                }
            ]
        }
    ],
    "accessors" : [
        {
            "bufferView" : 0,
            "componentType" : 5126,
            "count" : 206,
            "max" : [
                0.08571217954158783,
                0.14640000462532043,
                0.08571217954158783
            ],
            "min" : [
                -0.08571217954158783,
                0,
                -0.08571217954158783
            ],
            "type" : "VEC3"
        },
        {
            "bufferView" : 1,
            "componentType" : 5126,
            "count" : 206,
            "type" : "VEC3"
        },
        {
            "bufferView" : 2,
            "componentType" : 5126,
            "count" : 206,
            "type" : "VEC2"
        },
        {
            "bufferView" : 3,
            "componentType" : 5123,
            "count" : 222,
            "type" : "SCALAR"
        },
        {
            "bufferView" : 4,
            "componentType" : 5126,
            "count" : 52,
            "max" : [
                0.05081300064921379,
                0.21959999203681946,
                0.05081300064921379
            ],
            "min" : [
                -0.05081300064921379,
                0.14640000462532043,
                -0.05081300064921379
            ],
            "type" : "VEC3"
        },
        {
            "bufferView" : 5,
            "componentType" : 5126,
            "count" : 52,
            "type" : "VEC3"
        },
        {
            "bufferView" : 6,
            "componentType" : 5126,
            "count" : 52,
            "type" : "VEC2"
        },
        {
            "bufferView" : 7,
            "componentType" : 5123,
            "count" : 54,
            "type" : "SCALAR"
        }
    ],
    "bufferViews" : [
        {
            "buffer" : 0,
            "byteLength" : 2472,
            "byteOffset" : 0,
            "target" : 34962
        },
        {
            "buffer" : 0,
            "byteLength" : 2472,
            "byteOffset" : 2472,
            "target" : 34962
        },
        {
            "buffer" : 0,
            "byteLength" : 1648,
            "byteOffset" : 4944,
            "target" : 34962
        },
        {
            "buffer" : 0,
            "byteLength" : 444,
            "byteOffset" : 6592,
            "target" : 34963
        },
        {
            "buffer" : 0,
            "byteLength" : 624,
            "byteOffset" : 7036,
            "target" : 34962
        },
        {
            "buffer" : 0,
            "byteLength" : 624,
            "byteOffset" : 7660,
            "target" : 34962
        },
        {
            "buffer" : 0,
            "byteLength" : 416,
            "byteOffset" : 8284,
            "target" : 34962
        },
        {
            "buffer" : 0,
            "byteLength" : 108,
            "byteOffset" : 8700,
            "target" : 34963
        }
    ],
    "buffers" : [
        {
            "byteLength" : 8808,
            "uri" : "flower_beige2.bin"
        }
    ]
}
