{
    "asset" : {
        "generator" : "Khronos glTF Blender I/O v3.3.27",
        "version" : "2.0"
    },
    "scene" : 0,
    "scenes" : [
        {
            "name" : "Scene",
            "nodes" : [
                0
            ]
        }
    ],
    "nodes" : [
        {
            "mesh" : 0,
            "name" : "flower_red3",
            "scale" : [
                1.2200000286102295,
                1.2200000286102295,
                1.2200000286102295
            ]
        }
    ],
    "materials" : [
        {
            "name" : "natureKit-leavesGreen",
            "pbrMetallicRoughness" : {
                "baseColorFactor" : [
                    0.3529411852359772,
                    0.7686274647712708,
                    0.7137255072593689,
                    1
                ],
                "metallicFactor" : 0.25
            }
        },
        {
            "name" : "natureKit-mushroom",
            "pbrMetallicRoughness" : {
                "baseColorFactor" : [
                    0.8784313797950745,
                    0.29019609093666077,
                    0.3137255012989044,
                    1
                ],
                "metallicFactor" : 0.25
            }
        }
    ],
    "meshes" : [
        {
            "name" : "flower_red3",
            "primitives" : [
                {
                    "attributes" : {
                        "POSITION" : 0,
                        "NORMAL" : 1,
                        "TEXCOORD_0" : 2
                    },
                    "indices" : 3,
                    "material" : 0
                },
                {
                    "attributes" : {
                        "POSITION" : 4,
                        "NORMAL" : 5,
                        "TEXCOORD_0" : 6
                    },
                    "indices" : 7,
                    "material" : 1
                }
            ]
        }
    ],
    "accessors" : [
        {
            "bufferView" : 0,
            "componentType" : 5126,
            "count" : 108,
            "max" : [
                0.05056530982255936,
                0.1438799947500229,
                0.05056530982255936
            ],
            "min" : [
                -0.05056530982255936,
                0,
                -0.05056530982255936
            ],
            "type" : "VEC3"
        },
        {
            "bufferView" : 1,
            "componentType" : 5126,
            "count" : 108,
            "type" : "VEC3"
        },
        {
            "bufferView" : 2,
            "componentType" : 5126,
            "count" : 108,
            "type" : "VEC2"
        },
        {
            "bufferView" : 3,
            "componentType" : 5123,
            "count" : 126,
            "type" : "SCALAR"
        },
        {
            "bufferView" : 4,
            "componentType" : 5126,
            "count" : 97,
            "max" : [
                0.06201309710741043,
                0.16654229164123535,
                0.05370491370558739
            ],
            "min" : [
                -0.06201309710741043,
                0.1438799947500229,
                -0.05370491370558739
            ],
            "type" : "VEC3"
        },
        {
            "bufferView" : 5,
            "componentType" : 5126,
            "count" : 97,
            "type" : "VEC3"
        },
        {
            "bufferView" : 6,
            "componentType" : 5126,
            "count" : 97,
            "type" : "VEC2"
        },
        {
            "bufferView" : 7,
            "componentType" : 5123,
            "count" : 114,
            "type" : "SCALAR"
        }
    ],
    "bufferViews" : [
        {
            "buffer" : 0,
            "byteLength" : 1296,
            "byteOffset" : 0,
            "target" : 34962
        },
        {
            "buffer" : 0,
            "byteLength" : 1296,
            "byteOffset" : 1296,
            "target" : 34962
        },
        {
            "buffer" : 0,
            "byteLength" : 864,
            "byteOffset" : 2592,
            "target" : 34962
        },
        {
            "buffer" : 0,
            "byteLength" : 252,
            "byteOffset" : 3456,
            "target" : 34963
        },
        {
            "buffer" : 0,
            "byteLength" : 1164,
            "byteOffset" : 3708,
            "target" : 34962
        },
        {
            "buffer" : 0,
            "byteLength" : 1164,
            "byteOffset" : 4872,
            "target" : 34962
        },
        {
            "buffer" : 0,
            "byteLength" : 776,
            "byteOffset" : 6036,
            "target" : 34962
        },
        {
            "buffer" : 0,
            "byteLength" : 228,
            "byteOffset" : 6812,
            "target" : 34963
        }
    ],
    "buffers" : [
        {
            "byteLength" : 7040,
            "uri" : "flower_red3.bin"
        }
    ]
}
