<?xml version="1.0" encoding="utf-8"?>
<!-- Generator: Adobe Illustrator 27.1.1, SVG Export Plug-In . SVG Version: 6.00 Build 0)  -->
<svg version="1.1" id="Layer_1" xmlns="http://www.w3.org/2000/svg" xmlns:xlink="http://www.w3.org/1999/xlink" x="0px" y="0px"
	 viewBox="0 0 1440 900" style="enable-background:new 0 0 1440 900;" xml:space="preserve">
<style type="text/css">
	.st0{fill:#FFFFFF;}
</style>
<g>
	<g>
		<path class="st0" d="M1369.05,329.7l-107.75,25.03c-1.78,0.41-3.26,1.66-3.96,3.35c-0.7,1.69-0.54,3.62,0.43,5.17l58.48,93.88
			c0.99,1.59,2.71,2.59,4.59,2.67c0.08,0,0.15,0,0.23,0c1.79,0,3.48-0.85,4.56-2.29c26.43-35.67,43.83-77.67,50.33-121.46
			c0.27-1.86-0.39-3.73-1.77-5C1372.8,329.78,1370.88,329.27,1369.05,329.7z M1321.39,443.94l-49.8-79.95l91.77-21.32
			C1356.77,378.88,1342.39,413.59,1321.39,443.94z"/>
		<path class="st0" d="M843.94,262.19c0.43,0,0.86-0.05,1.28-0.15L952.97,237c1.78-0.41,3.26-1.66,3.96-3.35
			c0.7-1.69,0.54-3.62-0.43-5.17l-58.48-93.88c-0.99-1.59-2.71-2.59-4.59-2.67c-1.9-0.07-3.67,0.78-4.78,2.29
			c-26.43,35.67-43.83,77.67-50.33,121.46c-0.27,1.86,0.39,3.73,1.77,5C841.15,261.66,842.53,262.19,843.94,262.19z M892.88,147.8
			l49.8,79.95l-91.77,21.32C857.51,212.86,871.89,178.15,892.88,147.8z"/>
		<path class="st0" d="M945.87,86.76l93.88,58.48c0.91,0.57,1.95,0.86,3,0.86c0.74,0,1.47-0.14,2.17-0.43
			c1.69-0.7,2.94-2.17,3.35-3.96l25.04-107.75c0.43-1.83-0.08-3.75-1.35-5.13c-1.27-1.38-3.14-2.05-5-1.77
			c-43.79,6.49-85.79,23.89-121.46,50.33c-1.51,1.12-2.37,2.91-2.29,4.78S944.28,85.77,945.87,86.76z M1060.34,39.65l-21.32,91.77
			l-79.95-49.8C989.42,60.62,1024.13,46.24,1060.34,39.65z"/>
		<path class="st0" d="M1257.35,233.65c0.7,1.69,2.17,2.94,3.96,3.35l107.75,25.04c0.43,0.1,0.86,0.15,1.28,0.15
			c1.41,0,2.79-0.53,3.84-1.5c1.38-1.27,2.04-3.14,1.77-5c-6.49-43.79-23.9-85.79-50.33-121.46c-1.12-1.51-2.88-2.36-4.78-2.29
			c-1.88,0.08-3.59,1.07-4.59,2.67l-58.48,93.88C1256.8,230.04,1256.64,231.96,1257.35,233.65z M1321.39,147.8
			c20.99,30.35,35.38,65.06,41.97,101.27l-91.77-21.32L1321.39,147.8z"/>
		<path class="st0" d="M1166,141.71c0.41,1.78,1.66,3.26,3.35,3.96c0.7,0.29,1.43,0.43,2.17,0.43c1.05,0,2.09-0.29,3-0.86
			l93.88-58.48c1.59-0.99,2.59-2.71,2.67-4.58c0.08-1.88-0.78-3.67-2.29-4.78c-35.67-26.43-77.67-43.83-121.46-50.33
			c-1.86-0.28-3.73,0.39-5,1.77c-1.27,1.38-1.78,3.3-1.35,5.13L1166,141.71z M1255.2,81.62l-79.95,49.8l-21.32-91.77
			C1190.15,46.24,1224.85,60.62,1255.2,81.62z"/>
		<path class="st0" d="M1048.27,450.03c-0.41-1.78-1.66-3.26-3.35-3.96c-1.69-0.7-3.61-0.54-5.17,0.43l-93.88,58.48
			c-1.59,0.99-2.59,2.71-2.67,4.58c-0.08,1.88,0.78,3.67,2.29,4.78c35.67,26.43,77.67,43.83,121.46,50.33
			c0.28,0.04,0.56,0.06,0.83,0.06c1.57,0,3.09-0.65,4.17-1.83c1.27-1.38,1.78-3.3,1.35-5.13L1048.27,450.03z M959.07,510.12
			l79.95-49.8l21.32,91.77C1024.13,545.5,989.42,531.12,959.07,510.12z"/>
		<path class="st0" d="M1268.4,504.98l-93.88-58.48c-1.56-0.97-3.48-1.12-5.17-0.43c-1.69,0.7-2.94,2.17-3.35,3.96l-25.03,107.75
			c-0.43,1.83,0.08,3.75,1.35,5.13c1.08,1.17,2.6,1.83,4.17,1.83c0.28,0,0.55-0.02,0.83-0.06c43.79-6.49,85.79-23.89,121.46-50.33
			c1.51-1.12,2.37-2.91,2.29-4.78C1270.99,507.69,1269.99,505.98,1268.4,504.98z M1153.93,552.09l21.32-91.77l79.95,49.8
			C1224.85,531.12,1190.15,545.5,1153.93,552.09z"/>
		<path class="st0" d="M1206.31,383.55v-46.6l32.95-32.95c9.54,9.47,34.29,30.75,64.08,30.75c37.5,0,67.03-33.73,68.27-35.17
			l3.2-3.7l-3.2-3.7c-1.24-1.44-30.77-35.17-68.27-35.17c-29.79,0-54.54,21.28-64.08,30.75l-32.95-32.95v-46.6
			c13.45-0.05,46-2.51,67.06-23.57c26.52-26.52,23.55-71.25,23.41-73.14l-0.36-4.88l-4.88-0.36c-1.89-0.14-46.63-3.11-73.14,23.41
			c-21.07,21.07-23.52,53.61-23.57,67.06h-46.6l-32.95-32.95c9.47-9.54,30.75-34.29,30.75-64.08c0-37.5-33.73-67.03-35.17-68.27
			l-3.7-3.2l-3.7,3.2c-1.44,1.24-35.17,30.77-35.17,68.27c0,29.79,21.28,54.54,30.75,64.08l-32.95,32.95h-46.6
			c-0.05-13.45-2.5-45.99-23.57-67.06c-26.52-26.52-71.26-23.55-73.14-23.41l-4.88,0.36l-0.36,4.88
			c-0.14,1.89-3.11,46.63,23.41,73.14c21.06,21.06,53.61,23.52,67.06,23.57v46.6l-32.95,32.95c-9.54-9.47-34.29-30.75-64.08-30.75
			c-37.5,0-67.03,33.73-68.27,35.17l-3.2,3.7l3.2,3.7c1.24,1.44,30.77,35.17,68.27,35.17c29.79,0,54.54-21.28,64.08-30.75
			l32.95,32.95v46.6c-13.45,0.05-45.99,2.5-67.06,23.57c-26.52,26.52-23.55,71.25-23.41,73.14l0.36,4.88l4.88,0.36
			c0.37,0.03,2.41,0.17,5.64,0.17c13.17,0,46.21-2.28,67.5-23.57c21.07-21.07,23.52-53.61,23.57-67.06h46.6l32.95,32.95
			c-9.47,9.54-30.75,34.29-30.75,64.08c0,37.5,33.73,67.03,35.17,68.27l3.7,3.2l3.7-3.2c1.44-1.24,35.17-30.77,35.17-68.27
			c0-29.79-21.28-54.54-30.75-64.08l32.95-32.95h46.6c0.05,13.45,2.5,45.99,23.57,67.06c21.29,21.29,54.33,23.57,67.5,23.57
			c3.23,0,5.27-0.14,5.64-0.17l4.88-0.36l0.36-4.88c0.14-1.89,3.11-46.63-23.41-73.14C1252.29,386.05,1219.75,383.6,1206.31,383.55z
			 M1303.34,268.34c25.45,0,47.73,19.26,56.13,27.53c-8.4,8.28-30.68,27.53-56.13,27.53c-25.45,0-47.73-19.26-56.13-27.53
			C1255.61,287.59,1277.89,268.34,1303.34,268.34z M1226.41,137.67c18-18,47.37-20.13,59.16-20.22
			c-0.09,11.8-2.23,41.16-20.22,59.16c-18,18-47.37,20.14-59.16,20.22C1206.27,185.03,1208.41,155.66,1226.41,137.67z
			 M1107.14,43.54c8.28,8.4,27.53,30.68,27.53,56.13s-19.25,47.73-27.53,56.13c-8.28-8.4-27.53-30.68-27.53-56.13
			C1079.61,74.22,1098.86,51.94,1107.14,43.54z M928.71,117.44c11.79,0.09,41.16,2.23,59.16,20.22
			c17.99,17.99,20.13,47.36,20.22,59.16c-11.8-0.09-41.16-2.23-59.16-20.22C930.94,158.61,928.8,129.23,928.71,117.44z
			 M910.93,323.4c-25.45,0-47.73-19.26-56.13-27.53c8.4-8.28,30.68-27.53,56.13-27.53c25.45,0,47.73,19.26,56.13,27.53
			C958.66,304.15,936.38,323.4,910.93,323.4z M987.87,454.08c-18,18-47.37,20.13-59.16,20.22c0.09-11.8,2.23-41.16,20.22-59.16
			c18-17.99,47.37-20.14,59.16-20.22C1008,406.71,1005.86,436.08,987.87,454.08z M1107.14,548.2c-8.28-8.4-27.53-30.68-27.53-56.13
			c0-25.45,19.26-47.73,27.53-56.13c8.28,8.4,27.53,30.68,27.53,56.13C1134.67,517.52,1115.41,539.81,1107.14,548.2z M1145.87,383.7
			c-1.5,0-2.95,0.6-4.01,1.66l-34.72,34.72l-34.72-34.72c-1.06-1.06-2.51-1.66-4.01-1.66h-49.1v-49.1c0-1.5-0.6-2.95-1.66-4.01
			l-34.72-34.72l34.72-34.72c1.06-1.06,1.66-2.51,1.66-4.01v-49.1h49.1c1.5,0,2.95-0.6,4.01-1.66l34.72-34.72l34.72,34.72
			c1.06,1.06,2.51,1.66,4.01,1.66h49.1v49.1c0,1.5,0.6,2.95,1.66,4.01l34.72,34.72l-34.72,34.72c-1.06,1.06-1.66,2.51-1.66,4.01
			v49.1H1145.87z M1226.41,454.08c-17.99-17.99-20.13-47.36-20.22-59.16c11.8,0.09,41.16,2.23,59.16,20.22
			c18,17.99,20.13,47.37,20.22,59.16C1273.77,474.21,1244.4,472.07,1226.41,454.08z"/>
		<path class="st0" d="M1164.2,272.23v-27.76c0-3.13-2.54-5.67-5.67-5.67h-27.76l-19.63-19.63c-1.06-1.06-2.51-1.66-4.01-1.66
			c-1.5,0-2.95,0.6-4.01,1.66l-19.63,19.63h-27.76c-3.13,0-5.67,2.54-5.67,5.67v27.76l-19.63,19.63c-2.22,2.21-2.22,5.81,0,8.02
			l19.63,19.63v27.76c0,3.13,2.54,5.67,5.67,5.67h27.76l19.63,19.63c1.06,1.06,2.51,1.66,4.01,1.66c1.5,0,2.95-0.6,4.01-1.66
			l19.63-19.63h27.76c3.13,0,5.67-2.54,5.67-5.67v-27.76l19.63-19.63c2.22-2.21,2.22-5.81,0-8.02L1164.2,272.23z M1154.52,313.15
			c-1.06,1.06-1.66,2.51-1.66,4.01v24.43h-24.44c-1.5,0-2.95,0.6-4.01,1.66l-17.28,17.28l-17.28-17.28
			c-1.06-1.06-2.51-1.66-4.01-1.66h-24.43v-24.43c0-1.5-0.6-2.95-1.66-4.01l-17.28-17.28l17.28-17.28c1.06-1.06,1.66-2.51,1.66-4.01
			v-24.43h24.43c1.5,0,2.95-0.6,4.01-1.66l17.28-17.28l17.28,17.28c1.06,1.06,2.51,1.66,4.01,1.66h24.44v24.43
			c0,1.5,0.6,2.95,1.66,4.01l17.28,17.28L1154.52,313.15z"/>
		<path class="st0" d="M1141.18,281.77V267.5c0-3.13-2.54-5.67-5.67-5.67h-14.27l-10.09-10.09c-2.21-2.21-5.81-2.21-8.02,0
			l-10.09,10.09h-14.27c-3.13,0-5.67,2.54-5.67,5.67v14.27l-10.09,10.09c-1.06,1.06-1.66,2.51-1.66,4.01s0.6,2.95,1.66,4.01
			l10.09,10.09v14.27c0,3.13,2.54,5.67,5.67,5.67h14.27l10.09,10.09c1.11,1.11,2.56,1.66,4.01,1.66s2.9-0.55,4.01-1.66l10.09-10.09
			h14.27c3.13,0,5.67-2.54,5.67-5.67v-14.27l10.09-10.09c1.06-1.06,1.66-2.51,1.66-4.01s-0.6-2.95-1.66-4.01L1141.18,281.77z"/>
	</g>
	<g>
		<g>
			<g>
				<g>
					<path class="st0" d="M557.42,875.17c1.39,0.18,2.04,0.96,1.95,2.34c-0.09,1.39-0.83,2.08-2.21,2.08H507.2
						c-1.39,0-2.13-0.69-2.21-2.08c-0.09-1.39,0.56-2.17,1.95-2.34c2.25-0.34,4.38-0.6,6.37-0.78c1.99-0.17,3.73-0.56,5.21-1.17
						c1.47-0.6,2.64-1.73,3.51-3.38c0.87-1.65,1.3-4.2,1.3-7.67v-96.79H508.5c-2.26,0-3.38-0.95-3.38-2.86
						c0-1.91,1.13-2.86,3.38-2.86h14.83v-25.24c0-5.89,1.12-11.06,3.38-15.48c2.25-4.42,5.29-8.15,9.11-11.19
						c3.81-3.03,8.11-5.29,12.88-6.76c4.77-1.47,9.58-2.21,14.44-2.21c5.03,0,9.93,0.74,14.7,2.21c4.77,1.47,9.02,3.73,12.75,6.76
						c3.73,3.04,6.72,6.77,8.98,11.19c2.25,4.42,3.38,9.59,3.38,15.48v127.75c0,3.47,0.43,6.03,1.3,7.67
						c0.87,1.65,2.04,2.78,3.51,3.38c1.47,0.61,3.21,1,5.2,1.17c1.99,0.18,4.12,0.44,6.37,0.78c1.39,0.18,2.04,0.96,1.95,2.34
						c-0.09,1.39-0.83,2.08-2.21,2.08h-17.95c-7.11,0-11.54-1.69-13.27-5.07c-1.74-3.38-2.6-7.33-2.6-11.84V734.41
						c0-10.23-2.3-17.86-6.9-22.9c-4.6-5.03-9.67-7.54-15.22-7.54c-5.55,0-10.63,2.52-15.22,7.54c-4.6,5.03-6.9,12.67-6.9,22.9
						v25.24h18.47c2.25,0,3.38,0.95,3.38,2.86c0,1.91-1.13,2.86-3.38,2.86h-18.47v96.79c0,3.47,0.43,6.03,1.3,7.67
						c0.87,1.65,2.08,2.78,3.64,3.38c1.56,0.61,3.34,1,5.33,1.17C553.29,874.57,555.34,874.83,557.42,875.17z"/>
					<path class="st0" d="M680.47,758.35c13.36,0,24.5,3.08,33.43,9.24c8.93,6.16,15.65,13.79,20.16,22.9
						c4.51,9.11,6.77,19.04,6.77,29.79c0,10.76-2.26,20.69-6.77,29.79c-4.51,9.11-11.23,16.74-20.16,22.9
						c-8.94,6.16-20.08,9.24-33.43,9.24c-13.36,0-24.5-3.08-33.43-9.24c-8.94-6.15-15.61-13.79-20.03-22.9s-6.63-19.03-6.63-29.79
						c0-10.75,2.21-20.68,6.63-29.79s11.1-16.74,20.03-22.9C655.96,761.43,667.11,758.35,680.47,758.35z M680.47,763.56
						c-9.02,0-16.57,2.82-22.64,8.45c-6.07,5.64-10.58,12.62-13.53,20.95c-2.95,8.33-4.42,17.43-4.42,27.32
						c0,9.89,1.52,19,4.55,27.32c3.03,8.33,7.54,15.31,13.53,20.95c5.98,5.64,13.49,8.45,22.51,8.45c9.02,0,16.52-2.82,22.51-8.45
						c5.98-5.64,10.49-12.62,13.53-20.95c3.03-8.33,4.55-17.43,4.55-27.32c0-9.89-1.47-18.99-4.42-27.32
						c-2.95-8.33-7.46-15.31-13.53-20.95C697.03,766.38,689.48,763.56,680.47,763.56z"/>
					<path class="st0" d="M891.2,880.64c-3.82,1.04-6.85,0.65-9.11-1.17c-2.26-1.82-4.16-4.56-5.72-8.2l-35.13-86.12
						c-3.3,8.33-6.37,16.05-9.24,23.16c-2.86,7.11-5.77,14.35-8.72,21.72c-2.95,7.37-6.07,15.09-9.37,23.16
						c-3.3,8.06-7.02,17.22-11.19,27.45c-3.82,1.04-6.85,0.65-9.11-1.17c-2.26-1.82-4.16-4.56-5.72-8.2L746.8,770.06
						c-2.6-2.77-5.46-4.2-8.59-4.29c-3.12-0.09-6.42-0.48-9.89-1.17c-1.39-0.17-2.04-1-1.95-2.47c0.09-1.47,0.82-2.21,2.21-2.21
						h52.56c1.39,0,2.08,0.74,2.08,2.21c0,1.48-0.61,2.3-1.82,2.47c-2.26,0.35-4.34,0.61-6.24,0.78c-1.91,0.17-3.51,0.56-4.81,1.17
						c-1.3,0.61-2.08,1.56-2.34,2.86c-0.26,1.3,0.22,3.43,1.43,6.37c3.12,7.63,5.68,14.22,7.67,19.77
						c1.99,5.55,4.03,11.06,6.11,16.52c2.08,5.46,4.38,11.45,6.9,17.95c2.51,6.5,5.85,14.53,10.02,24.07c1.73,3.82,3.38,3.82,4.94,0
						l34.87-85.86c0-0.34,0.04-0.56,0.13-0.65c0.09-0.09,0.13-0.22,0.13-0.39c0.86-2.43,2.21-4.68,4.03-6.76
						c1.82-2.08,3.94-2.69,6.37-1.82l37.73,95.49c1.91,3.82,3.64,3.82,5.2,0l33.04-81.96c3.64-9.37,7.45-17,11.45-22.9
						c3.99-5.89,7.98-10.62,11.97-14.18c3.99-3.55,7.81-6.07,11.45-7.54c3.64-1.47,7.03-2.38,10.15-2.73
						c6.42-0.86,11.19-0.13,14.31,2.21c3.12,2.34,4.72,4.99,4.81,7.93c0.09,2.95-1.22,5.59-3.9,7.94
						c-2.69,2.34-6.64,2.99-11.84,1.95c-1.22-0.34-2.69-0.69-4.42-1.04c-1.74-0.35-3.64-0.52-5.72-0.52c-2.26,0-4.73,0.43-7.42,1.3
						c-2.69,0.87-5.42,2.56-8.2,5.07c-2.78,2.52-5.59,6.08-8.46,10.67c-2.86,4.6-5.59,10.54-8.2,17.82
						c-5.38,12.67-9.54,22.77-12.49,30.31c-2.95,7.54-5.68,14.53-8.2,20.95c-2.52,6.42-5.29,13.4-8.33,20.94
						C900.52,857.87,896.4,867.98,891.2,880.64z"/>
					<path class="st0" d="M1141.22,766.68c-10.06,0-18.47,2.82-25.24,8.46c-6.77,5.64-12.79,12.71-18.08,21.21
						c-5.29,8.5-10.32,17.65-15.09,27.45c-4.77,9.8-10.19,18.95-16.26,27.45c-6.07,8.5-13.31,15.57-21.73,21.2
						c-8.41,5.64-18.86,8.46-31.35,8.46h-4.42c-7.29,0-14.48-1.09-21.6-3.25c-7.11-2.17-13.53-5.68-19.25-10.54
						c-5.72-4.85-10.37-11.14-13.92-18.86c-3.56-7.72-5.42-17.13-5.59-28.23c0-9.19,1.26-17.56,3.77-25.11
						c2.51-7.54,6.2-14.05,11.06-19.51c4.85-5.46,10.84-9.71,17.95-12.75c7.11-3.03,15.09-4.55,23.94-4.55h2.34
						c7.98,0.18,15.18,1.65,21.6,4.42c6.42,2.78,11.92,6.5,16.52,11.19c4.59,4.68,8.11,10.24,10.54,16.65
						c2.43,6.42,3.64,13.44,3.64,21.07c0,2.26-0.69,4.21-2.08,5.85c-1.39,1.65-3.56,2.47-6.5,2.47h-82.74c0,9.72,1.3,18,3.9,24.85
						c2.6,6.85,5.98,12.4,10.15,16.65c4.16,4.25,8.93,7.37,14.31,9.37c5.37,2,10.84,2.91,16.39,2.73c9.54,0,17.78-2.12,24.72-6.37
						c6.94-4.25,13.1-9.71,18.47-16.39c5.37-6.67,10.23-14.18,14.57-22.5c4.33-8.33,8.76-16.48,13.27-24.46v-16.39
						c0-3.47-0.13-6.16-0.39-8.07c-0.26-1.91-0.91-3.29-1.95-4.16c-1.04-0.87-2.47-1.34-4.29-1.43c-1.82-0.08-4.29-0.13-7.41-0.13
						c-1.39,0-2.21-0.65-2.47-1.95c-0.26-1.3,0.65-2.21,2.73-2.73c4.85-1.39,9.76-2.86,14.7-4.42c4.94-1.56,9.58-3.38,13.92-5.47
						c0.69-0.34,1.39-0.43,2.08-0.26c0.69,0.18,1.04,0.7,1.04,1.56v16.91c5.03-5.55,10.67-10.06,16.91-13.53
						c6.24-3.47,13.53-5.21,21.86-5.21c6.41,0,11.71,0.57,15.87,1.69c4.16,1.13,7.98,3.08,11.45,5.85c3.12,2.6,5.12,5.12,5.98,7.55
						c0.87,2.43,1.08,4.6,0.65,6.5c-0.44,1.91-1.39,3.43-2.86,4.55c-1.48,1.13-3.17,1.69-5.07,1.69c-1.91,0-3.69-0.65-5.33-1.95
						c-1.65-1.3-2.91-3.6-3.77-6.9C1156.22,770.24,1150.58,766.68,1141.22,766.68z M1007.74,765.64
						c-12.84,0.35-22.29,4.77-28.36,13.27c-6.07,8.5-9.54,19.69-10.41,33.56h60.1c5.03,0,8.59-1.08,10.67-3.25
						c2.08-2.17,3.12-5.42,3.12-9.76c0-4.33-0.74-8.54-2.21-12.62c-1.48-4.07-3.69-7.68-6.64-10.8c-2.95-3.12-6.63-5.64-11.06-7.55
						C1018.54,766.59,1013.47,765.64,1007.74,765.64z M1118.84,875.17c1.21,0.35,1.82,1.17,1.82,2.47c0,1.3-0.7,1.95-2.08,1.95
						h-50.22c-1.39,0-2.08-0.65-2.08-1.95c0-1.3,0.61-2.12,1.82-2.47c2.25-0.34,4.38-0.6,6.37-0.78c1.99-0.17,3.73-0.56,5.2-1.17
						c1.47-0.6,2.64-1.73,3.51-3.38c0.87-1.65,1.3-4.2,1.3-7.67v-32.78c1.91-3.47,3.68-6.94,5.33-10.41
						c1.65-3.47,3.42-6.85,5.33-10.15c1.04-1.91,2.43-2.86,4.16-2.86c2.08,0,3.12,1.47,3.12,4.42v51.78c0,3.47,0.43,6.03,1.3,7.67
						c0.87,1.65,2.04,2.78,3.51,3.38c1.47,0.61,3.21,1,5.2,1.17C1114.46,874.57,1116.59,874.83,1118.84,875.17z"/>
					<path class="st0" d="M1276.51,846.55c0,6.76-1.43,12.4-4.29,16.91c-2.86,4.51-6.59,8.2-11.19,11.06
						c-4.6,2.86-9.72,4.9-15.35,6.11c-5.64,1.21-11.32,1.82-17.04,1.82c-8.85,0-17.39-1.52-25.63-4.55
						c-8.24-3.03-15.31-7.33-21.2-12.88c-1.39-1.39-1.82-2.64-1.3-3.77c0.52-1.12,1.47-1.69,2.86-1.69c1.04,0,1.91,0.35,2.6,1.04
						c4.33,3.82,10.1,7.16,17.3,10.02c7.2,2.86,16,4.29,26.41,4.29c10.23,0,18.08-2.43,23.55-7.28c5.46-4.85,8.2-10.15,8.2-15.87
						c0-3.64-1.09-6.81-3.25-9.5c-2.17-2.69-4.86-4.98-8.07-6.9c-3.21-1.91-6.68-3.51-10.41-4.81c-3.73-1.3-7.07-2.47-10.02-3.51
						c-4.68-1.56-9.67-3.12-14.96-4.68c-5.29-1.56-10.11-3.6-14.44-6.11c-4.34-2.51-7.93-5.76-10.8-9.76
						c-2.86-3.99-4.29-9.19-4.29-15.61c0-5.89,1.21-10.93,3.64-15.09c2.43-4.16,5.59-7.55,9.5-10.15c3.9-2.6,8.37-4.46,13.4-5.59
						c5.03-1.13,10.06-1.69,15.09-1.69c8.33,0.18,15.39,1.13,21.21,2.86c5.81,1.73,10.88,4.77,15.22,9.11
						c2.77,2.78,4.51,5.38,5.2,7.8c0.69,2.43,0.74,4.55,0.13,6.37c-0.61,1.82-1.69,3.3-3.25,4.42c-1.56,1.13-3.3,1.69-5.2,1.69
						c-1.91,0-3.69-0.65-5.33-1.95c-1.65-1.3-2.91-3.42-3.77-6.37c-1.39-5.55-3.95-9.8-7.68-12.75c-3.73-2.95-9.24-4.42-16.52-4.42
						c-8.68,0-15.27,2-19.77,5.98c-4.51,3.99-6.77,8.41-6.77,13.27c0,3.99,1.17,7.33,3.51,10.02c2.34,2.69,5.24,4.94,8.72,6.77
						c3.47,1.82,7.16,3.3,11.06,4.42c3.9,1.13,7.42,2.21,10.54,3.25c4.68,1.56,9.54,3.25,14.57,5.07c5.03,1.82,9.63,4.16,13.79,7.02
						c4.16,2.86,7.54,6.33,10.15,10.41C1275.21,835.41,1276.51,840.48,1276.51,846.55z"/>
				</g>
			</g>
			<g>
				<g>
					<path class="st0" d="M557.42,875.17c1.39,0.18,2.04,0.96,1.95,2.34c-0.09,1.39-0.83,2.08-2.21,2.08H507.2
						c-1.39,0-2.13-0.69-2.21-2.08c-0.09-1.39,0.56-2.17,1.95-2.34c2.25-0.34,4.38-0.6,6.37-0.78c1.99-0.17,3.73-0.56,5.21-1.17
						c1.47-0.6,2.64-1.73,3.51-3.38c0.87-1.65,1.3-4.2,1.3-7.67v-96.79H508.5c-2.26,0-3.38-0.95-3.38-2.86
						c0-1.91,1.13-2.86,3.38-2.86h14.83v-25.24c0-5.89,1.12-11.06,3.38-15.48c2.25-4.42,5.29-8.15,9.11-11.19
						c3.81-3.03,8.11-5.29,12.88-6.76c4.77-1.47,9.58-2.21,14.44-2.21c5.03,0,9.93,0.74,14.7,2.21c4.77,1.47,9.02,3.73,12.75,6.76
						c3.73,3.04,6.72,6.77,8.98,11.19c2.25,4.42,3.38,9.59,3.38,15.48v127.75c0,3.47,0.43,6.03,1.3,7.67
						c0.87,1.65,2.04,2.78,3.51,3.38c1.47,0.61,3.21,1,5.2,1.17c1.99,0.18,4.12,0.44,6.37,0.78c1.39,0.18,2.04,0.96,1.95,2.34
						c-0.09,1.39-0.83,2.08-2.21,2.08h-17.95c-7.11,0-11.54-1.69-13.27-5.07c-1.74-3.38-2.6-7.33-2.6-11.84V734.41
						c0-10.23-2.3-17.86-6.9-22.9c-4.6-5.03-9.67-7.54-15.22-7.54c-5.55,0-10.63,2.52-15.22,7.54c-4.6,5.03-6.9,12.67-6.9,22.9
						v25.24h18.47c2.25,0,3.38,0.95,3.38,2.86c0,1.91-1.13,2.86-3.38,2.86h-18.47v96.79c0,3.47,0.43,6.03,1.3,7.67
						c0.87,1.65,2.08,2.78,3.64,3.38c1.56,0.61,3.34,1,5.33,1.17C553.29,874.57,555.34,874.83,557.42,875.17z"/>
					<path class="st0" d="M680.47,758.35c13.36,0,24.5,3.08,33.43,9.24c8.93,6.16,15.65,13.79,20.16,22.9
						c4.51,9.11,6.77,19.04,6.77,29.79c0,10.76-2.26,20.69-6.77,29.79c-4.51,9.11-11.23,16.74-20.16,22.9
						c-8.94,6.16-20.08,9.24-33.43,9.24c-13.36,0-24.5-3.08-33.43-9.24c-8.94-6.15-15.61-13.79-20.03-22.9s-6.63-19.03-6.63-29.79
						c0-10.75,2.21-20.68,6.63-29.79s11.1-16.74,20.03-22.9C655.96,761.43,667.11,758.35,680.47,758.35z M680.47,763.56
						c-9.02,0-16.57,2.82-22.64,8.45c-6.07,5.64-10.58,12.62-13.53,20.95c-2.95,8.33-4.42,17.43-4.42,27.32
						c0,9.89,1.52,19,4.55,27.32c3.03,8.33,7.54,15.31,13.53,20.95c5.98,5.64,13.49,8.45,22.51,8.45c9.02,0,16.52-2.82,22.51-8.45
						c5.98-5.64,10.49-12.62,13.53-20.95c3.03-8.33,4.55-17.43,4.55-27.32c0-9.89-1.47-18.99-4.42-27.32
						c-2.95-8.33-7.46-15.31-13.53-20.95C697.03,766.38,689.48,763.56,680.47,763.56z"/>
					<path class="st0" d="M891.2,880.64c-3.82,1.04-6.85,0.65-9.11-1.17c-2.26-1.82-4.16-4.56-5.72-8.2l-35.13-86.12
						c-3.3,8.33-6.37,16.05-9.24,23.16c-2.86,7.11-5.77,14.35-8.72,21.72c-2.95,7.37-6.07,15.09-9.37,23.16
						c-3.3,8.06-7.02,17.22-11.19,27.45c-3.82,1.04-6.85,0.65-9.11-1.17c-2.26-1.82-4.16-4.56-5.72-8.2L746.8,770.06
						c-2.6-2.77-5.46-4.2-8.59-4.29c-3.12-0.09-6.42-0.48-9.89-1.17c-1.39-0.17-2.04-1-1.95-2.47c0.09-1.47,0.82-2.21,2.21-2.21
						h52.56c1.39,0,2.08,0.74,2.08,2.21c0,1.48-0.61,2.3-1.82,2.47c-2.26,0.35-4.34,0.61-6.24,0.78c-1.91,0.17-3.51,0.56-4.81,1.17
						c-1.3,0.61-2.08,1.56-2.34,2.86c-0.26,1.3,0.22,3.43,1.43,6.37c3.12,7.63,5.68,14.22,7.67,19.77
						c1.99,5.55,4.03,11.06,6.11,16.52c2.08,5.46,4.38,11.45,6.9,17.95c2.51,6.5,5.85,14.53,10.02,24.07c1.73,3.82,3.38,3.82,4.94,0
						l34.87-85.86c0-0.34,0.04-0.56,0.13-0.65c0.09-0.09,0.13-0.22,0.13-0.39c0.86-2.43,2.21-4.68,4.03-6.76
						c1.82-2.08,3.94-2.69,6.37-1.82l37.73,95.49c1.91,3.82,3.64,3.82,5.2,0l33.04-81.96c3.64-9.37,7.45-17,11.45-22.9
						c3.99-5.89,7.98-10.62,11.97-14.18c3.99-3.55,7.81-6.07,11.45-7.54c3.64-1.47,7.03-2.38,10.15-2.73
						c6.42-0.86,11.19-0.13,14.31,2.21c3.12,2.34,4.72,4.99,4.81,7.93c0.09,2.95-1.22,5.59-3.9,7.94
						c-2.69,2.34-6.64,2.99-11.84,1.95c-1.22-0.34-2.69-0.69-4.42-1.04c-1.74-0.35-3.64-0.52-5.72-0.52c-2.26,0-4.73,0.43-7.42,1.3
						c-2.69,0.87-5.42,2.56-8.2,5.07c-2.78,2.52-5.59,6.08-8.46,10.67c-2.86,4.6-5.59,10.54-8.2,17.82
						c-5.38,12.67-9.54,22.77-12.49,30.31c-2.95,7.54-5.68,14.53-8.2,20.95c-2.52,6.42-5.29,13.4-8.33,20.94
						C900.52,857.87,896.4,867.98,891.2,880.64z"/>
					<path class="st0" d="M1141.22,766.68c-10.06,0-18.47,2.82-25.24,8.46c-6.77,5.64-12.79,12.71-18.08,21.21
						c-5.29,8.5-10.32,17.65-15.09,27.45c-4.77,9.8-10.19,18.95-16.26,27.45c-6.07,8.5-13.31,15.57-21.73,21.2
						c-8.41,5.64-18.86,8.46-31.35,8.46h-4.42c-7.29,0-14.48-1.09-21.6-3.25c-7.11-2.17-13.53-5.68-19.25-10.54
						c-5.72-4.85-10.37-11.14-13.92-18.86c-3.56-7.72-5.42-17.13-5.59-28.23c0-9.19,1.26-17.56,3.77-25.11
						c2.51-7.54,6.2-14.05,11.06-19.51c4.85-5.46,10.84-9.71,17.95-12.75c7.11-3.03,15.09-4.55,23.94-4.55h2.34
						c7.98,0.18,15.18,1.65,21.6,4.42c6.42,2.78,11.92,6.5,16.52,11.19c4.59,4.68,8.11,10.24,10.54,16.65
						c2.43,6.42,3.64,13.44,3.64,21.07c0,2.26-0.69,4.21-2.08,5.85c-1.39,1.65-3.56,2.47-6.5,2.47h-82.74c0,9.72,1.3,18,3.9,24.85
						c2.6,6.85,5.98,12.4,10.15,16.65c4.16,4.25,8.93,7.37,14.31,9.37c5.37,2,10.84,2.91,16.39,2.73c9.54,0,17.78-2.12,24.72-6.37
						c6.94-4.25,13.1-9.71,18.47-16.39c5.37-6.67,10.23-14.18,14.57-22.5c4.33-8.33,8.76-16.48,13.27-24.46v-16.39
						c0-3.47-0.13-6.16-0.39-8.07c-0.26-1.91-0.91-3.29-1.95-4.16c-1.04-0.87-2.47-1.34-4.29-1.43c-1.82-0.08-4.29-0.13-7.41-0.13
						c-1.39,0-2.21-0.65-2.47-1.95c-0.26-1.3,0.65-2.21,2.73-2.73c4.85-1.39,9.76-2.86,14.7-4.42c4.94-1.56,9.58-3.38,13.92-5.47
						c0.69-0.34,1.39-0.43,2.08-0.26c0.69,0.18,1.04,0.7,1.04,1.56v16.91c5.03-5.55,10.67-10.06,16.91-13.53
						c6.24-3.47,13.53-5.21,21.86-5.21c6.41,0,11.71,0.57,15.87,1.69c4.16,1.13,7.98,3.08,11.45,5.85c3.12,2.6,5.12,5.12,5.98,7.55
						c0.87,2.43,1.08,4.6,0.65,6.5c-0.44,1.91-1.39,3.43-2.86,4.55c-1.48,1.13-3.17,1.69-5.07,1.69c-1.91,0-3.69-0.65-5.33-1.95
						c-1.65-1.3-2.91-3.6-3.77-6.9C1156.22,770.24,1150.58,766.68,1141.22,766.68z M1007.74,765.64
						c-12.84,0.35-22.29,4.77-28.36,13.27c-6.07,8.5-9.54,19.69-10.41,33.56h60.1c5.03,0,8.59-1.08,10.67-3.25
						c2.08-2.17,3.12-5.42,3.12-9.76c0-4.33-0.74-8.54-2.21-12.62c-1.48-4.07-3.69-7.68-6.64-10.8c-2.95-3.12-6.63-5.64-11.06-7.55
						C1018.54,766.59,1013.47,765.64,1007.74,765.64z M1118.84,875.17c1.21,0.35,1.82,1.17,1.82,2.47c0,1.3-0.7,1.95-2.08,1.95
						h-50.22c-1.39,0-2.08-0.65-2.08-1.95c0-1.3,0.61-2.12,1.82-2.47c2.25-0.34,4.38-0.6,6.37-0.78c1.99-0.17,3.73-0.56,5.2-1.17
						c1.47-0.6,2.64-1.73,3.51-3.38c0.87-1.65,1.3-4.2,1.3-7.67v-32.78c1.91-3.47,3.68-6.94,5.33-10.41
						c1.65-3.47,3.42-6.85,5.33-10.15c1.04-1.91,2.43-2.86,4.16-2.86c2.08,0,3.12,1.47,3.12,4.42v51.78c0,3.47,0.43,6.03,1.3,7.67
						c0.87,1.65,2.04,2.78,3.51,3.38c1.47,0.61,3.21,1,5.2,1.17C1114.46,874.57,1116.59,874.83,1118.84,875.17z"/>
					<path class="st0" d="M1276.51,846.55c0,6.76-1.43,12.4-4.29,16.91c-2.86,4.51-6.59,8.2-11.19,11.06
						c-4.6,2.86-9.72,4.9-15.35,6.11c-5.64,1.21-11.32,1.82-17.04,1.82c-8.85,0-17.39-1.52-25.63-4.55
						c-8.24-3.03-15.31-7.33-21.2-12.88c-1.39-1.39-1.82-2.64-1.3-3.77c0.52-1.12,1.47-1.69,2.86-1.69c1.04,0,1.91,0.35,2.6,1.04
						c4.33,3.82,10.1,7.16,17.3,10.02c7.2,2.86,16,4.29,26.41,4.29c10.23,0,18.08-2.43,23.55-7.28c5.46-4.85,8.2-10.15,8.2-15.87
						c0-3.64-1.09-6.81-3.25-9.5c-2.17-2.69-4.86-4.98-8.07-6.9c-3.21-1.91-6.68-3.51-10.41-4.81c-3.73-1.3-7.07-2.47-10.02-3.51
						c-4.68-1.56-9.67-3.12-14.96-4.68c-5.29-1.56-10.11-3.6-14.44-6.11c-4.34-2.51-7.93-5.76-10.8-9.76
						c-2.86-3.99-4.29-9.19-4.29-15.61c0-5.89,1.21-10.93,3.64-15.09c2.43-4.16,5.59-7.55,9.5-10.15c3.9-2.6,8.37-4.46,13.4-5.59
						c5.03-1.13,10.06-1.69,15.09-1.69c8.33,0.18,15.39,1.13,21.21,2.86c5.81,1.73,10.88,4.77,15.22,9.11
						c2.77,2.78,4.51,5.38,5.2,7.8c0.69,2.43,0.74,4.55,0.13,6.37c-0.61,1.82-1.69,3.3-3.25,4.42c-1.56,1.13-3.3,1.69-5.2,1.69
						c-1.91,0-3.69-0.65-5.33-1.95c-1.65-1.3-2.91-3.42-3.77-6.37c-1.39-5.55-3.95-9.8-7.68-12.75c-3.73-2.95-9.24-4.42-16.52-4.42
						c-8.68,0-15.27,2-19.77,5.98c-4.51,3.99-6.77,8.41-6.77,13.27c0,3.99,1.17,7.33,3.51,10.02c2.34,2.69,5.24,4.94,8.72,6.77
						c3.47,1.82,7.16,3.3,11.06,4.42c3.9,1.13,7.42,2.21,10.54,3.25c4.68,1.56,9.54,3.25,14.57,5.07c5.03,1.82,9.63,4.16,13.79,7.02
						c4.16,2.86,7.54,6.33,10.15,10.41C1275.21,835.41,1276.51,840.48,1276.51,846.55z"/>
				</g>
			</g>
			<g>
				<path class="st0" d="M116.45,529.87c-2.6,0.35-5.72,0.52-9.37,0.52c-3.64,0-6.85-0.69-9.63-2.08c-2.95-1.39-4.81-3.12-5.59-5.2
					c-0.78-2.08-0.82-4.03-0.13-5.85c0.7-1.82,1.95-3.25,3.77-4.29c1.82-1.04,4.03-1.04,6.63,0c1.73,0.69,3.25,1.65,4.55,2.86
					c1.3,1.21,2.56,2.47,3.77,3.78c1.22,1.3,2.47,2.43,3.77,3.38c1.3,0.95,2.82,1.43,4.55,1.43c2.25,0,4.85-1.13,7.8-3.38
					c3.29-3.47,5.98-8.24,8.07-14.31c2.08-6.07,3.12-13.18,3.12-21.33V351.39c0-3.47-0.44-6.02-1.3-7.68
					c-0.87-1.65-2.04-2.77-3.51-3.38c-1.48-0.6-3.21-1-5.2-1.17c-2-0.17-4.12-0.43-6.37-0.78c-1.39-0.35-2.04-1.17-1.95-2.47
					c0.09-1.3,0.82-1.95,2.21-1.95h51.26c1.39,0,2.12,0.65,2.21,1.95c0.09,1.3-0.57,2.13-1.95,2.47c-2.08,0.35-4.12,0.61-6.11,0.78
					c-2,0.17-3.73,0.57-5.2,1.17c-1.48,0.61-2.65,1.74-3.51,3.38c-0.87,1.65-1.3,4.21-1.3,7.68v133.99c0,5.9-1.04,11.45-3.12,16.65
					c-2.08,5.2-4.94,9.76-8.59,13.66c-3.64,3.9-7.94,7.07-12.88,9.5C127.51,527.62,122.18,529.18,116.45,529.87z"/>
				<path class="st0" d="M229.1,377.14c13.36,0,24.5,3.08,33.43,9.24c8.93,6.16,15.65,13.79,20.16,22.9
					c4.51,9.11,6.77,19.04,6.77,29.79c0,10.76-2.26,20.69-6.77,29.79c-4.51,9.11-11.23,16.74-20.16,22.9
					c-8.94,6.16-20.08,9.24-33.43,9.24c-13.36,0-24.5-3.08-33.43-9.24c-8.94-6.15-15.61-13.79-20.03-22.9
					c-4.42-9.11-6.63-19.03-6.63-29.79c0-10.75,2.21-20.68,6.63-29.79c4.42-9.11,11.1-16.74,20.03-22.9
					C204.6,380.22,215.74,377.14,229.1,377.14z M229.1,382.35c-9.02,0-16.57,2.82-22.64,8.45c-6.07,5.64-10.58,12.62-13.53,20.95
					c-2.95,8.33-4.42,17.43-4.42,27.32c0,9.89,1.52,19,4.55,27.32c3.03,8.33,7.54,15.31,13.53,20.95s13.49,8.45,22.51,8.45
					c9.02,0,16.52-2.82,22.51-8.45s10.49-12.62,13.53-20.95c3.03-8.33,4.55-17.43,4.55-27.32c0-9.89-1.47-18.99-4.42-27.32
					c-2.95-8.33-7.46-15.31-13.53-20.95C245.66,385.17,238.11,382.35,229.1,382.35z"/>
				<path class="st0" d="M345.65,500.21c-5.72,0.34-11.32-0.13-16.78-1.43c-5.46-1.3-10.32-3.38-14.57-6.24
					c-4.25-2.86-7.68-6.55-10.28-11.06c-2.6-4.51-3.9-9.8-3.9-15.87v-59.32c0-3.47-0.17-6.15-0.52-8.06c-0.35-1.91-1-3.29-1.95-4.16
					c-0.96-0.87-2.34-1.39-4.16-1.56c-1.82-0.17-4.29-0.26-7.42-0.26c-1.39,0-2.25-0.61-2.6-1.82c-0.34-1.21,0.61-2.08,2.86-2.6
					c4.68-1.39,9.5-2.86,14.44-4.42c4.94-1.56,9.58-3.38,13.92-5.47c2.08-1.04,3.12-0.69,3.12,1.04v86.64
					c0,8.33,2.82,14.48,8.46,18.47c5.63,3.99,12.1,6.08,19.38,6.25c7.81,0,14.87-1.73,21.2-5.2c6.33-3.47,12.44-7.89,18.34-13.27
					v-65.57c0-3.47-0.17-6.15-0.52-8.06c-0.35-1.91-1-3.29-1.95-4.16c-0.96-0.87-2.34-1.39-4.16-1.56
					c-1.82-0.17-4.29-0.26-7.42-0.26c-1.39,0-2.26-0.61-2.6-1.82c-0.35-1.21,0.52-2.08,2.6-2.6c4.85-1.39,9.76-2.86,14.7-4.42
					c4.94-1.56,9.58-3.38,13.92-5.47c0.69-0.34,1.39-0.48,2.08-0.39c0.69,0.09,1.04,0.57,1.04,1.43v74.41l0.78-0.78l1.3-1.56
					l0.78-0.78c7.29-7.8,14.44-15.78,21.47-23.93c7.03-8.15,14.35-15.7,21.99-22.64c-0.17-5.73-1.13-9.06-2.86-10.02
					c-1.74-0.95-5.46-1.43-11.19-1.43c-1.39,0-2.21-0.61-2.47-1.82c-0.26-1.21,0.65-2.08,2.73-2.6c4.68-1.39,9.54-2.86,14.57-4.42
					c5.03-1.56,9.71-3.38,14.05-5.47c0.69-0.34,1.39-0.48,2.08-0.39c0.69,0.09,1.04,0.57,1.04,1.43v10.93
					c5.89-3.99,12.01-7.07,18.34-9.24c6.33-2.17,13.14-3.25,20.42-3.25c6.42,0,11.97,0.52,16.65,1.56
					c4.68,1.04,8.76,3.04,12.23,5.98c3.29,2.78,5.42,5.47,6.37,8.07c0.95,2.6,1.13,4.94,0.52,7.02c-0.61,2.08-1.74,3.73-3.38,4.94
					c-1.65,1.21-3.43,1.82-5.34,1.82c-1.91,0-3.73-0.69-5.46-2.08c-1.74-1.39-3.04-3.64-3.9-6.77c-1.91-7.11-7.8-10.67-17.69-10.67
					c-9.37,0-18.13,1.95-26.28,5.85c-8.15,3.9-15.96,9.02-23.42,15.35c-7.46,6.33-14.75,13.57-21.86,21.72
					c-7.11,8.15-14.4,16.48-21.86,24.98c-4.68,5.2-9.37,10.5-14.05,15.87c-4.68,5.38-9.72,10.19-15.09,14.44
					c-5.38,4.25-11.15,7.76-17.3,10.54C359.91,498.82,353.1,500.21,345.65,500.21z M390.14,498.65c-2.08,0.34-3.43,0.08-4.03-0.78
					c-0.61-0.86-0.91-2.25-0.91-4.16v-4.68c3.99-3.47,7.54-6.85,10.67-10.15c1.56-1.56,2.95-2.34,4.16-2.34
					c1.91,0,2.86,1.56,2.86,4.68c0,4.51,1.17,7.28,3.51,8.33c2.34,1.04,5.5,1.73,9.5,2.08c1.91,0.17,2.82,0.83,2.73,1.95
					c-0.09,1.13-0.91,1.87-2.47,2.21L390.14,498.65z M483.54,494.23c1.21,0.18,1.82,0.96,1.82,2.34c0,1.39-0.7,2.08-2.08,2.08
					h-50.22c-1.39,0-2.08-0.69-2.08-2.08c0-1.39,0.61-2.17,1.82-2.34c2.25-0.34,4.38-0.6,6.37-0.78c1.99-0.17,3.73-0.56,5.2-1.17
					c1.47-0.6,2.64-1.73,3.51-3.38c0.87-1.65,1.3-4.2,1.3-7.67v-60.36c2.6-2.43,4.55-4.29,5.85-5.59c1.3-1.3,2.9-2.73,4.81-4.29
					c1.73-1.39,3.21-2.08,4.42-2.08c1.91,0,2.86,1.56,2.86,4.68v67.65c0,3.47,0.43,6.03,1.3,7.67c0.87,1.65,2.04,2.78,3.51,3.38
					c1.47,0.61,3.21,1,5.2,1.17C479.16,493.62,481.29,493.88,483.54,494.23z"/>
				<path class="st0" d="M599.31,493.97c1.39,0.35,2.04,1.17,1.95,2.47c-0.09,1.3-0.83,1.95-2.21,1.95H549.1
					c-1.39,0-2.13-0.65-2.21-1.95c-0.09-1.3,0.56-2.12,1.95-2.47c2.08-0.34,4.12-0.6,6.11-0.78c1.99-0.17,3.73-0.56,5.2-1.17
					c1.47-0.6,2.64-1.73,3.51-3.38c0.87-1.65,1.3-4.2,1.3-7.67v-74.93c0-3.47-0.13-6.16-0.39-8.07c-0.26-1.91-0.91-3.29-1.95-4.16
					c-1.04-0.87-2.47-1.34-4.29-1.43c-1.82-0.08-4.29-0.13-7.42-0.13c-1.39,0-2.21-0.65-2.47-1.95c-0.26-1.3,0.65-2.21,2.73-2.73
					c4.85-1.39,9.76-2.86,14.7-4.42c4.94-1.56,9.58-3.38,13.92-5.47c0.69-0.34,1.39-0.43,2.08-0.26c0.69,0.18,1.04,0.7,1.04,1.56
					v19.77c4.51-7.28,10.75-12.7,18.73-16.26c7.98-3.55,16.13-5.33,24.46-5.33c5.37,0,10.58,0.74,15.61,2.21
					c5.03,1.48,9.5,3.64,13.4,6.51c3.9,2.86,7.03,6.46,9.37,10.8c2.34,4.34,3.51,9.37,3.51,15.09v69.21c0,3.47,0.43,6.03,1.3,7.67
					c0.87,1.65,2.04,2.78,3.51,3.38c1.47,0.61,3.21,1,5.2,1.17c1.99,0.18,4.12,0.44,6.37,0.78c1.21,0.35,1.82,1.17,1.82,2.47
					c0,1.3-0.7,1.95-2.08,1.95h-50.22c-1.39,0-2.08-0.65-2.08-1.95c0-1.3,0.61-2.12,1.82-2.47c2.25-0.34,4.38-0.6,6.37-0.78
					c1.99-0.17,3.73-0.56,5.2-1.17c1.47-0.6,2.64-1.73,3.51-3.38c0.87-1.65,1.3-4.2,1.3-7.67v-69.21c0-8.5-2.91-14.74-8.72-18.73
					c-5.81-3.99-12.62-5.99-20.43-5.99c-4.51,0-9.02,0.7-13.53,2.08c-4.51,1.39-8.59,3.43-12.23,6.11
					c-3.64,2.69-6.59,6.03-8.85,10.02c-2.26,3.99-3.38,8.59-3.38,13.79v61.93c0,3.47,0.43,6.03,1.3,7.67
					c0.87,1.65,2.04,2.78,3.51,3.38c1.47,0.61,3.21,1,5.21,1.17C594.93,493.36,597.06,493.62,599.31,493.97z"/>
				<path class="st0" d="M790.8,476.01c-3.99,7.28-10.24,13.05-18.73,17.3c-8.5,4.25-18.04,6.37-28.62,6.37
					c-7.29,0-14.48-1.09-21.6-3.25c-7.11-2.17-13.53-5.68-19.25-10.54c-5.72-4.85-10.37-11.14-13.92-18.86
					c-3.56-7.72-5.42-17.13-5.59-28.23c-0.17-9.19,1.04-17.56,3.64-25.11c2.6-7.54,6.33-14.05,11.19-19.51
					c4.85-5.46,10.84-9.71,17.95-12.75c7.11-3.03,15.09-4.55,23.94-4.55c7.98,0,15.31,1.26,21.98,3.77
					c6.68,2.52,12.44,6.08,17.3,10.67c4.85,4.6,8.63,10.19,11.32,16.78c2.69,6.6,4.03,13.97,4.03,22.12c0,2.26-0.69,4.21-2.08,5.85
					c-1.39,1.65-3.56,2.47-6.5,2.47h-83c0,9.72,1.3,18,3.9,24.85c2.6,6.85,5.98,12.4,10.15,16.65c4.16,4.25,8.93,7.37,14.31,9.37
					c5.37,2,10.84,2.91,16.39,2.73c7.63-0.17,14.66-1.78,21.07-4.81c6.42-3.03,11.62-7.94,15.61-14.7c1.04-1.73,2.34-2.6,3.9-2.6
					c1.21,0,2.17,0.61,2.86,1.82C791.75,473.07,791.67,474.45,790.8,476.01z M741.89,384.43c-12.66,0.35-22.03,4.77-28.1,13.27
					c-6.07,8.5-9.54,19.69-10.41,33.56h60.1c5.03,0,8.59-1.08,10.67-3.25c2.08-2.17,3.12-5.42,3.12-9.76
					c0-4.33-0.74-8.54-2.21-12.62c-1.48-4.07-3.73-7.68-6.77-10.8c-3.04-3.12-6.76-5.64-11.19-7.55
					C752.68,385.38,747.61,384.43,741.89,384.43z"/>
				<path class="st0" d="M849.85,528.05c-4.86,11.8-11.49,20.38-19.9,25.76c-8.41,5.37-16.96,8.06-25.63,8.06
					c-9.2,0-17.43-2.78-24.72-8.33c-7.29-5.55-11.79-13.36-13.53-23.42c-0.69-4.34,0.22-7.63,2.73-9.89
					c2.52-2.26,5.25-3.38,8.2-3.38c2.78,0,5.25,0.87,7.42,2.6c2.17,1.73,3.08,4.59,2.73,8.59c-0.52,7.98,1.48,14.13,5.98,18.47
					c4.51,4.33,9.89,6.5,16.13,6.5c5.89,0,11.84-2.04,17.82-6.11c5.98-4.08,10.8-10.54,14.44-19.38c0.69-1.39,1.3-2.86,1.82-4.42
					l3.9-9.11c0.35-0.7,0.65-1.39,0.91-2.08c0.26-0.7,0.56-1.48,0.91-2.34c1.56-3.99,1.86-7.59,0.91-10.8
					c-0.96-3.21-1.95-6.02-2.99-8.45l-39.81-94.45c-1.21-3.29-2.69-5.72-4.42-7.28c-1.74-1.56-3.6-2.69-5.59-3.38
					c-2-0.69-4.07-1.08-6.24-1.17c-2.17-0.08-4.29-0.3-6.37-0.65c-1.39-0.35-2.04-1.17-1.95-2.47c0.09-1.3,0.83-1.95,2.21-1.95
					h53.86c1.39,0,2.12,0.65,2.21,1.95c0.09,1.3-0.57,2.13-1.95,2.47c-2.08,0.35-4.08,0.61-5.98,0.78
					c-1.91,0.17-3.47,0.56-4.68,1.17c-1.22,0.61-2,1.52-2.34,2.73c-0.35,1.22-0.09,3.12,0.78,5.73c3.29,7.8,6.07,14.53,8.33,20.16
					c2.25,5.64,4.46,11.19,6.64,16.65c2.17,5.46,4.59,11.45,7.29,17.95c2.69,6.5,6.11,14.62,10.28,24.33c0.52,1.74,1.39,2.6,2.6,2.6
					c1.04,0,1.99-0.95,2.86-2.86c5.55-13.53,11.14-27.01,16.78-40.46c5.63-13.44,11.32-27.02,17.04-40.72
					c3.64-9.37,7.5-17,11.58-22.9c4.07-5.9,8.11-10.58,12.1-14.05c3.99-3.47,7.81-5.94,11.45-7.42c3.64-1.47,7.03-2.38,10.15-2.73
					c6.42-0.86,11.19-0.13,14.31,2.21c3.12,2.34,4.72,4.99,4.81,7.94c0.09,2.95-1.22,5.55-3.9,7.81c-2.69,2.26-6.63,2.86-11.84,1.82
					c-1.22-0.34-2.69-0.69-4.42-1.04c-1.73-0.34-3.64-0.52-5.72-0.52c-3.99,0-8.46,1.52-13.4,4.55c-4.94,3.04-9.76,9.58-14.44,19.64
					c-0.17,0.35-0.35,0.78-0.52,1.3c-0.17,0.52-0.35,0.96-0.52,1.3l-2.34,5.2c-0.17,0.35-0.31,0.78-0.39,1.3
					c-0.09,0.52-0.31,0.96-0.65,1.3c-4.51,10.58-9.15,21.6-13.92,33.04c-4.77,11.45-9.54,22.86-14.31,34.22
					c-4.77,11.36-9.41,22.47-13.92,33.3C858.08,508.58,853.83,518.68,849.85,528.05z"/>
			</g>
		</g>
		<g>
			<path class="st0" d="M521.08,628.49c0-15.46,10.81-26.37,25.36-26.37s25.36,10.91,25.36,26.37s-10.81,26.47-25.36,26.47
				S521.08,643.95,521.08,628.49z M569.78,628.49c0-14.45-10-24.45-23.34-24.45c-13.34,0-23.34,10-23.34,24.45
				c0,14.45,10,24.55,23.34,24.55C559.78,653.04,569.78,642.94,569.78,628.49z"/>
			<path class="st0" d="M591.7,592.73v9.7h17.68v1.92H591.7v50.32h-2.02v-50.32h-10.1v-1.92h10.1v-10.2
				c0-7.68,4.55-12.83,12.63-12.83c3.74,0,7.78,1.21,10.2,3.74l-1.41,1.41c-2.22-2.12-5.35-3.23-8.69-3.23
				C595.34,581.31,591.7,585.35,591.7,592.73z"/>
			<path class="st0" d="M669.2,651.23c-2.42,2.53-6.47,3.74-10.2,3.74c-8.29,0-12.63-5.15-12.63-12.83v-37.79h-10.1v-1.92h10.1
				v-11.42h2.02v11.42h17.68v1.92h-17.68v37.28c0,7.37,3.64,11.42,10.71,11.42c3.33,0,6.47-1.11,8.69-3.23L669.2,651.23z"/>
			<path class="st0" d="M729.62,623.85v30.82h-2.02v-30.82c0-12.93-6.97-19.8-18.79-19.8c-13.74,0-22.03,8.99-22.03,22.23v28.39
				h-2.02v-74.97h2.02v36.68c3.13-8.69,10.81-14.25,21.93-14.25C721.54,602.12,729.62,609.7,729.62,623.85z"/>
			<path class="st0" d="M794.49,628.49h-46.48c0,14.45,10.3,24.55,24.15,24.55c6.97,0,13.64-2.63,17.78-8.08l1.41,1.41
				c-4.65,5.66-11.72,8.59-19.2,8.59c-15.05,0-26.07-11.01-26.07-26.47s10.31-26.37,24.15-26.37c13.74,0,24.25,10.71,24.25,25.87
				V628.49z M748.02,626.57h44.56c-0.71-12.93-10-22.53-22.33-22.53C757.92,604.04,748.72,613.64,748.02,626.57z"/>
		</g>
	</g>
</g>
</svg>
